<svg width="45" height="21" viewBox="0 0 45 21" fill="none" xmlns="http://www.w3.org/2000/svg">
<path d="M1.36719 16V4.72656H3.72656V16H1.36719ZM4.95438 16V7.39844H7.23563V8.72656H7.37625C7.57417 8.25781 7.88146 7.88802 8.29813 7.61719C8.71479 7.34635 9.23042 7.21094 9.845 7.21094C10.8033 7.21094 11.5325 7.49219 12.0325 8.05469C12.5377 8.61198 12.7903 9.40625 12.7903 10.4375V16H10.5091V10.9531C10.5091 10.3438 10.3815 9.88281 10.1263 9.57031C9.87104 9.25781 9.4726 9.10156 8.93094 9.10156C8.58198 9.10156 8.2799 9.18229 8.02469 9.34375C7.77469 9.5 7.57938 9.72135 7.43875 10.0078C7.30333 10.2943 7.23563 10.6328 7.23563 11.0234V16H4.95438ZM16.7916 16.1328C16.078 16.1328 15.4582 15.9557 14.9322 15.6016C14.4114 15.2422 14.0077 14.7318 13.7213 14.0703C13.44 13.4089 13.2994 12.6198 13.2994 11.7031V11.6875C13.2994 10.7656 13.4374 9.97396 13.7134 9.3125C13.9947 8.65104 14.3957 8.14323 14.9166 7.78906C15.4374 7.4349 16.0624 7.25781 16.7916 7.25781C17.3801 7.25781 17.9009 7.39323 18.3541 7.66406C18.8124 7.9349 19.1483 8.30469 19.3619 8.77344H19.5025V4.10938H21.7838V16H19.5025V14.6641H19.3619C19.1431 15.1276 18.8124 15.4896 18.3697 15.75C17.927 16.0052 17.4009 16.1328 16.7916 16.1328ZM17.565 14.2422C17.9713 14.2422 18.3202 14.1406 18.6119 13.9375C18.9035 13.7344 19.1275 13.4427 19.2838 13.0625C19.4452 12.6823 19.5259 12.2318 19.5259 11.7109V11.6953C19.5259 11.1641 19.4452 10.7109 19.2838 10.3359C19.1275 9.95573 18.9009 9.66406 18.6041 9.46094C18.3124 9.2526 17.966 9.14844 17.565 9.14844C17.1692 9.14844 16.8228 9.2526 16.5259 9.46094C16.2343 9.66406 16.0103 9.95573 15.8541 10.3359C15.6978 10.7109 15.6197 11.1615 15.6197 11.6875V11.7031C15.6197 12.2292 15.6978 12.6823 15.8541 13.0625C16.0103 13.4427 16.2343 13.7344 16.5259 13.9375C16.8176 14.1406 17.164 14.2422 17.565 14.2422Z" fill="#171B1A"/>
<path d="M25.7069 16.1797C25.0662 16.1797 24.5272 16.0547 24.0897 15.8047C23.6574 15.5547 23.3319 15.1901 23.1131 14.7109C22.8944 14.2266 22.785 13.6432 22.785 12.9609V7.39844H25.0662V12.4375C25.0662 13.0469 25.186 13.5078 25.4256 13.8203C25.6704 14.1328 26.0636 14.2891 26.6053 14.2891C26.9803 14.2891 27.2954 14.2109 27.5506 14.0547C27.811 13.8932 28.0064 13.6693 28.1366 13.3828C28.272 13.0911 28.3397 12.7526 28.3397 12.3672V7.39844H30.6209V16H28.3397V14.6719H28.1991C28.0064 15.1406 27.6965 15.5104 27.2694 15.7812C26.8423 16.0469 26.3215 16.1797 25.7069 16.1797ZM31.005 16L33.7003 11.7422L30.9816 7.39844H33.5988L35.1222 10.25H35.2628L36.7863 7.39844H39.2706L36.5597 11.6484L39.2863 16H36.7628L35.1534 13.1562H35.0128L33.4113 16H31.005ZM41.2875 16.1953C40.8917 16.1953 40.5635 16.0651 40.3031 15.8047C40.0427 15.5443 39.9125 15.2214 39.9125 14.8359C39.9125 14.4505 40.0427 14.1302 40.3031 13.875C40.5635 13.6146 40.8917 13.4844 41.2875 13.4844C41.6937 13.4844 42.0245 13.6146 42.2797 13.875C42.5349 14.1302 42.6625 14.4505 42.6625 14.8359C42.6625 15.2214 42.5349 15.5443 42.2797 15.8047C42.0245 16.0651 41.6937 16.1953 41.2875 16.1953Z" fill="#3E4342"/>
</svg>
